<?xml version="1.0" standalone="no"?>
<!DOCTYPE svg PUBLIC "-//W3C//DTD SVG 20010904//EN"
 "http://www.w3.org/TR/2001/REC-SVG-20010904/DTD/svg10.dtd">
<svg version="1.0" xmlns="http://www.w3.org/2000/svg"
 width="612.000000pt" height="612.000000pt" viewBox="0 0 612.000000 612.000000"
 preserveAspectRatio="xMidYMid meet">

<g transform="translate(0.000000,612.000000) scale(0.100000,-0.100000)"
fill="#000000" stroke="none">
<path d="M1820 4306 l0 -154 58 -6 c101 -12 264 -47 382 -83 712 -214 1303
-821 1576 -1616 78 -229 121 -426 146 -664 l12 -123 153 0 153 0 -2 1398 -3
1397 -150 0 -150 0 -3 -785 -2 -785 -70 129 c-39 71 -107 185 -152 253 l-80
123 -2 532 -1 533 -152 3 -153 3 0 -356 c0 -195 -4 -355 -8 -355 -5 0 -21 14
-38 31 -51 55 -238 204 -341 272 -322 213 -726 359 -1115 401 l-58 6 0 -154z"/>
<path d="M1820 2750 l0 -1090 155 0 155 0 0 900 c0 495 2 900 5 900 16 0 189
-76 240 -104 l60 -35 2 -823 c1 -453 2 -826 3 -830 0 -5 68 -8 150 -8 l150 0
0 713 1 712 50 -55 c332 -361 528 -802 584 -1312 l6 -58 151 0 151 0 -6 87
c-35 475 -258 1016 -575 1393 -269 321 -597 537 -978 644 -88 25 -248 56 -285
56 -18 0 -19 -32 -19 -1090z"/>
</g>
</svg>
